PathFileType	4	(X/Y/Z)	s08c0202.trc
DataRate	CameraRate	NumFrames	NumMarkers	Units	OrigDataRate	OrigDataStartFrame	OrigNumFrames
200	200	5	50	mm	200	1750	2000
Frame#	Time	racr			lacr			c7			jug			rlel			rdr			llel			ldr			s2			lic			ric			lasi			rasi			rpsi			lpsi			rgt			lgt			rth1			rth2			rth3			rth4			rlfc			rmfc			rsh1			rsh2			rsh3			rsh4			rlmal			rmmal			rcal			rtoe			rmt5			lth1			lth2			lth4			lth3			llfc			lmfc			llmal			lmmal			lcal			lmt5			lsh1			lsh2			lsh3			lsh4			ltoe			SBIKE			LBIKE			RBIKE			
		X1	Y1	Z1	X2	Y2	Z2	X3	Y3	Z3	X4	Y4	Z4	X5	Y5	Z5	X6	Y6	Z6	X7	Y7	Z7	X8	Y8	Z8	X9	Y9	Z9	X10	Y10	Z10	X11	Y11	Z11	X12	Y12	Z12	X13	Y13	Z13	X14	Y14	Z14	X15	Y15	Z15	X16	Y16	Z16	X17	Y17	Z17	X18	Y18	Z18	X19	Y19	Z19	X20	Y20	Z20	X21	Y21	Z21	X22	Y22	Z22	X23	Y23	Z23	X24	Y24	Z24	X25	Y25	Z25	X26	Y26	Z26	X27	Y27	Z27	X28	Y28	Z28	X29	Y29	Z29	X30	Y30	Z30	X31	Y31	Z31	X32	Y32	Z32	X33	Y33	Z33	X34	Y34	Z34	X35	Y35	Z35	X36	Y36	Z36	X37	Y37	Z37	X38	Y38	Z38	X39	Y39	Z39	X40	Y40	Z40	X41	Y41	Z41	X42	Y42	Z42	X43	Y43	Z43	X44	Y44	Z44	X45	Y45	Z45	X46	Y46	Z46	X47	Y47	Z47	X48	Y48	Z48	X49	Y49	Z49	X50	Y50	Z50	
1750	8.7500	526.139882	1322.543556	-32.993846	551.697735	1324.437431	-383.169573	521.769669	1423.946910	-205.567251	480.500954	1266.201420	-210.721963	534.232481	1069.613554	58.323675	765.605272	931.186027	-68.608702	537.022577	1084.292600	-533.304079	750.002836	932.513841	-443.144376	-15.581145	1203.268437	-267.871021	150.305500	1194.983224	-407.490812	113.019349	1220.674394	-94.059117	169.083291	1140.761408	-376.044628	158.320509	1173.791892	-125.389195	7.318786	1247.706412	-221.045271	15.021188	1244.331704	-314.156789	76.644192	1128.117611	-56.205505	77.520363	1066.039204	-434.369059	228.479037	1049.917058	-62.171574	315.540051	1032.905684	-67.645046	380.853344	976.611447	-69.435036	330.399226	1064.146957	-81.928670	475.080314	906.415140	-92.023721	460.146950	896.982984	-213.366872	384.437467	824.344934	-58.386521	344.456518	744.281792	-72.928843	273.140524	696.449875	-71.786006	368.946597	726.787064	-100.391482	187.721395	609.008506	-73.139193	210.626436	616.037551	-160.565575	102.113879	615.716889	-116.726890	362.747476	469.195390	-109.927659	268.993835	486.235549	-43.232221	131.066897	939.127448	-448.426919	184.186549	869.471704	-446.936637	217.294027	883.050156	-437.866350	194.445125	781.202496	-443.296494	229.076456	658.961184	-415.904752	228.955714	634.590720	-312.456794	192.544487	241.864192	-411.182141	224.349318	263.381136	-330.415498	133.102958	228.058593	-369.215644	330.222333	139.184685	-422.071007	203.954740	531.129909	-440.983118	222.976938	448.740825	-426.766505	198.240433	363.711619	-423.435079	248.112485	451.116001	-395.402179	414.901838	161.502912	-353.338684	-145.784946	936.824717	-229.787057	10.748133	79.624936	-427.210741	10.703487	80.322468	-28.673996	
1751	8.7550	525.808779	1321.700516	-30.846595	552.209254	1323.701006	-380.369266	521.982110	1423.105295	-203.314202	480.547904	1265.396500	-208.612268	533.492536	1068.356102	59.852678	765.000392	930.737410	-68.678556	537.923519	1084.657475	-532.338611	750.908150	932.771465	-443.303405	-15.585450	1204.474078	-269.144199	151.149812	1194.625727	-407.830003	112.422804	1221.847662	-95.059361	168.611953	1139.505056	-374.873793	157.911801	1175.077782	-126.050548	7.047058	1249.331917	-222.090687	15.370881	1245.289072	-315.772513	76.822116	1130.854054	-56.991830	77.015698	1066.118625	-435.049672	228.144804	1052.932023	-62.259880	315.118748	1036.409123	-67.835601	380.969427	980.525994	-68.863528	329.929978	1067.708634	-81.801112	476.127131	911.527737	-90.826275	463.663543	901.763239	-212.928033	387.776345	827.972542	-57.602891	348.702636	747.190539	-72.323208	278.112638	698.217394	-71.344741	373.436891	730.396340	-99.741131	193.541194	608.957448	-73.094680	216.201479	616.478864	-160.472757	107.258271	612.647001	-116.630767	372.813648	475.311842	-110.031381	278.702626	488.828344	-43.333118	128.355473	938.530179	-450.126538	180.695611	868.270172	-449.471672	214.089652	881.431959	-440.509095	189.914268	779.799296	-445.288022	224.560865	657.939400	-416.655179	225.520227	633.845847	-312.911575	182.703827	241.344385	-410.748206	214.838768	262.652009	-329.437145	123.309966	227.878511	-368.497077	319.537453	137.275890	-421.979353	197.980485	530.491778	-440.956510	215.411960	447.634762	-425.961976	189.898223	363.231430	-422.986635	241.241056	449.846580	-395.327746	404.547574	158.717652	-353.391730	-145.894284	936.832437	-229.983549	10.724479	79.667850	-427.204845	10.741368	80.540210	-28.523383	
1752	8.7600	525.417562	1320.801111	-28.806057	552.804915	1322.842534	-377.896931	522.169953	1422.189739	-201.098725	480.603695	1264.510168	-206.570288	532.845947	1067.168927	61.267454	764.285762	930.259956	-68.772320	538.804461	1084.886406	-531.478605	751.830986	932.953585	-443.249294	-15.686853	1205.742057	-270.256527	151.728037	1194.410303	-407.964514	112.103247	1223.105688	-95.889750	169.994334	1140.262014	-378.001996	157.634112	1176.267777	-126.499214	7.229871	1250.593496	-223.208997	15.621677	1246.313419	-317.089217	76.971277	1133.401601	-57.784149	76.620616	1066.369440	-435.688031	227.675560	1055.386070	-62.376290	315.119816	1039.634476	-66.097951	380.755097	983.686548	-68.088205	329.446079	1070.501548	-81.421430	476.666921	915.231570	-89.561266	466.475705	905.519864	-212.248961	389.367096	830.494976	-56.868704	352.136250	749.244858	-71.537879	282.123120	699.114807	-71.005716	377.071693	732.698016	-99.088928	198.785497	607.819753	-73.149669	222.072148	616.148559	-160.133080	112.182965	608.151942	-116.486314	382.794404	481.223027	-110.104757	288.276926	490.847152	-43.308002	125.857953	938.166051	-451.572586	177.644408	867.355339	-451.825548	211.274334	880.291718	-443.056586	186.075402	778.861864	-447.471478	221.315325	657.435268	-417.121682	223.236288	633.514945	-313.025286	172.849526	241.600988	-410.178426	205.942327	262.365100	-329.039052	113.454951	228.435258	-367.570376	308.717808	136.064302	-421.863307	193.031254	530.454454	-440.684417	209.030905	447.403848	-425.602247	182.010948	363.479985	-422.357339	235.168132	449.228303	-395.281880	394.132097	156.699942	-353.503064	-145.977710	936.819911	-230.088517	10.702857	79.607467	-427.282895	10.696390	80.543882	-28.547196	
1753	8.7650	524.946641	1320.010030	-26.911656	553.231087	1321.923394	-375.617566	522.427514	1421.300994	-199.067451	480.428204	1263.728056	-204.628069	532.245889	1066.037871	62.595740	763.544873	929.835470	-68.874123	539.727827	1084.923663	-530.717822	752.720614	933.008454	-443.221951	-15.846850	1207.062972	-271.249651	152.076298	1194.486451	-408.325401	111.670512	1224.340355	-96.669835	168.336065	1139.113732	-375.476322	157.359054	1177.493842	-126.720776	7.411216	1251.930311	-224.157291	15.780105	1247.517810	-318.186676	76.900363	1135.645215	-58.615304	76.293237	1066.790305	-436.325697	226.906018	1057.118327	-62.463785	314.649192	1041.820219	-65.304059	380.373879	985.963438	-67.209292	328.893130	1072.639118	-80.801684	476.762844	917.561093	-88.252724	468.382541	908.171871	-211.322301	390.846975	832.034360	-55.874601	354.640393	750.093097	-70.659039	285.303626	698.856790	-70.587724	379.974047	734.113914	-98.054868	203.556193	605.360978	-73.084767	226.713168	614.480119	-160.041679	117.073622	602.107205	-116.589488	392.517258	486.841819	-110.144112	297.682680	492.295434	-43.217427	123.683149	938.025510	-452.927441	175.079610	866.936020	-453.955545	208.928574	879.689375	-445.480547	183.111471	778.403532	-449.375396	219.439421	657.707119	-417.293889	221.881122	633.557441	-312.982172	163.216893	242.681352	-409.467489	196.837893	262.987807	-328.216117	103.774793	229.841126	-366.591967	297.885399	135.544246	-421.750324	189.097378	531.187365	-440.215785	203.376388	447.788783	-424.993975	174.682581	364.474140	-421.518578	229.874480	449.040693	-394.877389	383.636542	155.263876	-353.573764	-145.897504	936.805053	-230.119049	10.670774	79.678003	-427.224017	10.696802	80.619296	-28.567351	
1754	8.7700	524.433174	1319.135149	-25.079123	553.691983	1320.616289	-373.561490	522.704447	1420.408668	-197.275027	480.190624	1262.965175	-202.912698	531.625878	1065.063276	64.003068	762.873305	929.396121	-68.869252	540.623708	1084.753857	-530.057007	753.625701	933.013332	-443.015813	-15.981895	1208.421986	-272.130949	152.055992	1194.797083	-408.853319	111.314274	1225.554729	-97.315466	169.568598	1140.489190	-378.718206	157.222871	1178.615319	-126.594843	7.671899	1253.160514	-225.207065	16.146265	1248.648512	-318.466259	76.754784	1137.513161	-59.425388	75.889680	1067.456607	-436.899735	226.079911	1058.191203	-62.339779	313.896477	1042.976061	-64.564586	379.685536	986.909517	-67.026291	328.238233	1073.954325	-80.068925	476.388070	918.762265	-86.833298	469.183123	909.638148	-210.140727	391.002612	832.250880	-54.913674	356.248082	749.757161	-69.687320	287.777003	697.313852	-69.936591	382.043319	734.045445	-96.792459	208.083578	601.711832	-73.054454	230.637292	611.731127	-159.934722	121.684634	594.989459	-116.190844	401.979301	492.037683	-109.985343	307.056389	492.961786	-43.058864	122.013773	938.146835	-454.024509	173.314713	866.937624	-455.641758	207.339643	879.776621	-447.737610	181.286129	778.531370	-450.467528	218.996752	658.503849	-417.330909	222.002425	634.487982	-312.679097	154.039904	244.707106	-408.659953	188.250125	264.276901	-327.389163	94.448534	232.409562	-365.582570	287.165246	135.678468	-421.608357	186.304059	532.520217	-439.516751	198.685610	448.812094	-424.274449	168.060198	366.240252	-420.529941	225.428475	449.498484	-394.426425	373.306532	154.033152	-353.568025	-145.760001	936.675821	-229.976658	10.647581	79.631049	-427.300968	10.696482	80.618314	-28.600644	
